<?xml version="1.0" encoding="UTF-8" standalone="no"?>
<svg
   width="64"
   height="64"
   stroke-width="2.5"
   viewBox="0 0 24 24"
   fill="none"
   color="#f0f0f0"
   version="1.1"
   id="svg2"
   xmlns="http://www.w3.org/2000/svg"
   xmlns:svg="http://www.w3.org/2000/svg">
  <defs
     id="defs2" />
  <path
     d="m 14.179328,12.176928 c 0,-2.4917009 -2.317,-4.9976009 -5.1428609,-4.9976009 -0.33473,0 -1.4381,10e-6 -1.71428,10e-6 -2.84032,0 -5.14286,2.23751 -5.14286,4.9975909 0,2.3784 1.70973,4.3688 4,4.8738 0.36756,0.0811 0.75006,0.1238 1.14286,0.1238"
     stroke="#f0f0f0"
     stroke-width="2.5"
     stroke-linecap="round"
     stroke-linejoin="round"
     id="path5"
     style="stroke:#b3b3b3" />
  <path
     d="m 10.179328,12.176928 c 0,2.4917 2.317,4.9976 5.1429,4.9976 0.3347,0 1.4381,0 1.7142,0 2.8404,0 5.1429,-2.2375 5.1429,-4.9976 0,-2.3784009 -1.7097,-4.3687609 -4,-4.8737709 -0.3676,-0.08105 -0.7501,-0.12384 -1.1429,-0.12384"
     stroke="#f0f0f0"
     stroke-width="2.5"
     stroke-linecap="round"
     stroke-linejoin="round"
     id="path6"
     style="stroke:#b3b3b3" />
  <path
     d="M 14,11.9976 C 14,9.5059 11.683,7 8.85714,7 8.52241,7 7.41904,7.00001 7.14286,7.00001 4.30254,7.00001 2,9.23752 2,11.9976 c 0,2.3784 1.70973,4.3688 4,4.8738 0.36756,0.0811 0.75006,0.1238 1.14286,0.1238"
     stroke="#f0f0f0"
     stroke-width="2.5"
     stroke-linecap="round"
     stroke-linejoin="round"
     id="path1" />
  <path
     d="m 10,11.9976 c 0,2.4917 2.317,4.9976 5.1429,4.9976 0.3347,0 1.4381,0 1.7142,0 C 19.6975,16.9952 22,14.7577 22,11.9976 22,9.6192 20.2903,7.62884 18,7.12383 17.6324,7.04278 17.2499,6.99999 16.8571,6.99999"
     stroke="#f0f0f0"
     stroke-width="2.5"
     stroke-linecap="round"
     stroke-linejoin="round"
     id="path2" />
</svg>
